<svg xmlns="http://www.w3.org/2000/svg" width="27.87" height="27.87" viewBox="0 0 27.87 27.87"><defs><style>.a{fill:#1a1c1c;}.b{fill:#fff;}</style></defs><path class="a" d="M475.87,461.935A13.935,13.935,0,1,0,459.758,475.7v-9.737h-3.538v-4.028h3.538v-3.07c0-3.492,2.08-5.422,5.263-5.422a21.429,21.429,0,0,1,3.119.272v3.429h-1.757a2.014,2.014,0,0,0-2.271,2.176v2.614h3.865l-.618,4.028h-3.247V475.7A13.938,13.938,0,0,0,475.87,461.935Z" transform="translate(-448 -448)"/><path class="b" d="M496.89,485.52l.618-4.028h-3.865v-2.614a2.014,2.014,0,0,1,2.271-2.176h1.757v-3.429a21.427,21.427,0,0,0-3.119-.272c-3.183,0-5.263,1.929-5.263,5.422v3.07H485.75v4.028h3.538v9.737a14.075,14.075,0,0,0,4.355,0V485.52Z" transform="translate(-477.531 -467.557)"/></svg>