<svg xmlns="http://www.w3.org/2000/svg" width="28" height="28" viewBox="0 0 28 28"><defs><style>.a{fill:#1a1c1c;}.b{fill:#fff;fill-rule:evenodd;}</style></defs><g transform="translate(0.405)"><circle class="a" cx="14" cy="14" r="14" transform="translate(-0.405 0)"/><path class="b" d="M41.967,34.762H40.608a4.8,4.8,0,1,1-9.289,0H29.961v6.6a.6.6,0,0,0,.6.6h10.8a.6.6,0,0,0,.6-.6v-6.6Zm0-4.2a.6.6,0,0,0-.6-.6h-1.8a.6.6,0,0,0-.6.6v1.8a.6.6,0,0,0,.6.6h1.8a.6.6,0,0,0,.6-.6v-1.8Zm-6,2.4a3,3,0,1,0,3,3,3,3,0,0,0-3-3m6,10.8H29.961a1.8,1.8,0,0,1-1.8-1.8V29.961a1.8,1.8,0,0,1,1.8-1.8H41.967a1.8,1.8,0,0,1,1.8,1.8V41.966a1.8,1.8,0,0,1-1.8,1.8" transform="translate(-21.971 -21.899)"/></g></svg>