<svg xmlns="http://www.w3.org/2000/svg" width="28" height="28" viewBox="0 0 28 28"><defs><style>.a{fill:#1a1c1c;}.b{fill:#fff;}</style></defs><g transform="translate(0.054)"><circle class="a" cx="14" cy="14" r="14" transform="translate(-0.054 0)"/><path class="b" d="M48.337,33.3c0,3.518-1.954,6.144-4.837,6.144a2.572,2.572,0,0,1-2.19-1.118s-.52,2.067-.63,2.465a9.587,9.587,0,0,1-1.618,2.934.12.12,0,0,1-.213-.051,10.048,10.048,0,0,1,.027-3.408c.172-.727,1.153-4.885,1.153-4.885a3.446,3.446,0,0,1-.286-1.419c0-1.329.771-2.32,1.729-2.32a1.2,1.2,0,0,1,1.21,1.346,19.174,19.174,0,0,1-.792,3.182A1.387,1.387,0,0,0,43.3,37.892c1.7,0,2.841-2.182,2.841-4.766,0-1.964-1.322-3.436-3.729-3.436A4.246,4.246,0,0,0,38,33.983a2.587,2.587,0,0,0,.591,1.758.436.436,0,0,1,.129.5c-.044.165-.141.562-.184.72a.309.309,0,0,1-.449.224,3.454,3.454,0,0,1-1.835-3.425c0-2.547,2.148-5.6,6.406-5.6A5.357,5.357,0,0,1,48.337,33.3Z" transform="translate(-28.014 -21.899)"/></g></svg>