<svg xmlns="http://www.w3.org/2000/svg" width="27" height="28" viewBox="0 0 27 28"><defs><style>.a{fill:#1a1c1c;}.b{fill:#fff;}</style></defs><g transform="translate(-0.378)"><ellipse class="a" cx="13.5" cy="14" rx="13.5" ry="14" transform="translate(0.378 0)"/><path class="b" d="M43.767,36.375a6.4,6.4,0,0,1-1.839.5,3.213,3.213,0,0,0,1.408-1.772,6.409,6.409,0,0,1-2.033.777,3.205,3.205,0,0,0-5.456,2.92,9.09,9.09,0,0,1-6.6-3.345,3.205,3.205,0,0,0,.991,4.275,3.187,3.187,0,0,1-1.45-.4c0,.013,0,.027,0,.04a3.2,3.2,0,0,0,2.569,3.14,3.211,3.211,0,0,1-1.446.055A3.205,3.205,0,0,0,32.9,44.793a6.423,6.423,0,0,1-3.977,1.371,6.511,6.511,0,0,1-.764-.045,9.106,9.106,0,0,0,14.019-7.672q0-.208-.009-.414A6.5,6.5,0,0,0,43.767,36.375Z" transform="translate(-22.411 -27.151)"/></g></svg>